SplineFontDB: 3.0
FontName: HW222
FullName: HW222
FamilyName: HW222
Weight: Medium
Copyright: Created by Douglas Miller,,, with FontForge 2.0 (http://fontforge.sf.net)
UComments: "2016-6-29: Created." 
Version: 001.000
ItalicAngle: 0
UnderlinePosition: -10
UnderlineWidth: 20
Ascent: 800
Descent: 50
LayerCount: 2
Layer: 0 0 "Back"  1
Layer: 1 0 "Fore"  0
XUID: [1021 590 1988622496 2365732]
FSType: 0
OS2Version: 0
OS2_WeightWidthSlopeOnly: 0
OS2_UseTypoMetrics: 1
CreationTime: 1467256892
ModificationTime: 1467288555
OS2TypoAscent: 0
OS2TypoAOffset: 1
OS2TypoDescent: 0
OS2TypoDOffset: 1
OS2TypoLinegap: 90
OS2WinAscent: 0
OS2WinAOffset: 1
OS2WinDescent: 0
OS2WinDOffset: 1
HheadAscent: 0
HheadAOffset: 1
HheadDescent: 0
HheadDOffset: 1
OS2Vendor: 'PfEd'
MarkAttachClasses: 1
DEI: 91125
Encoding: UnicodeBmp
Compacted: 1
UnicodeInterp: none
NameList: Adobe Glyph List
DisplaySize: -24
AntiAlias: 1
FitToEm: 1
WinInfo: 0 16 15
BeginPrivate: 0
EndPrivate
BeginChars: 9634 103

StartChar: exclam
Encoding: 33 33 0
Width: 512
VWidth: 1024
Flags: HW
LayerCount: 2
Fore
SplineSet
205 766 m 1
 307 766 l 1
 297 239 l 1
 215 239 l 1
 205 766 l 1
200 18 m 1
 200 152 l 1
 312 152 l 1
 312 18 l 1
 200 18 l 1
EndSplineSet
Validated: 1
EndChar

StartChar: quotedbl
Encoding: 34 34 1
Width: 512
VWidth: 1024
Flags: HW
LayerCount: 2
Fore
SplineSet
282 817 m 1
 384 817 l 1
 364 530 l 1
 302 530 l 1
 282 817 l 1
128 817 m 1
 230 817 l 1
 210 530 l 1
 148 530 l 1
 128 817 l 1
EndSplineSet
Validated: 1
EndChar

StartChar: numbersign
Encoding: 35 35 2
Width: 512
VWidth: 1024
Flags: HW
LayerCount: 2
Fore
SplineSet
41 211 m 1
 41 285 l 1
 120 285 l 1
 150 518 l 1
 77 518 l 1
 77 592 l 1
 159 592 l 1
 180 766 l 1
 264 766 l 1
 243 592 l 1
 321 592 l 1
 342 766 l 1
 426 766 l 1
 404 592 l 1
 471 592 l 1
 471 518 l 1
 395 518 l 1
 366 285 l 1
 435 285 l 1
 435 211 l 1
 356 211 l 1
 333 18 l 1
 249 18 l 1
 272 211 l 1
 195 211 l 1
 171 18 l 1
 87 18 l 1
 111 211 l 1
 41 211 l 1
204 285 m 1
 282 285 l 1
 311 518 l 1
 233 518 l 1
 204 285 l 1
EndSplineSet
Validated: 1
EndChar

StartChar: dollar
Encoding: 36 36 3
Width: 512
VWidth: 1024
Flags: HW
LayerCount: 2
Fore
SplineSet
300 337 m 1
 300 118 l 1
 339.333 132 359 168.667 359 228 c 0
 359 276.667 339.333 313 300 337 c 1
300 38 m 1
 300 -69 l 1
 222 -69 l 1
 222 35 l 1
 174.667 39 128 55.6667 82 85 c 1
 82 182 l 1
 126 143.333 172.667 120 222 112 c 1
 222 369 l 1
 169.333 389.667 132 415.333 110 446 c 128
 88 476.667 77 516.667 77 566 c 0
 77 618 89.6667 659.833 115 691.5 c 128
 140.333 723.169 176 742.336 222 749 c 1
 222 853 l 1
 300 853 l 1
 300 749 l 1
 347.334 743 390.667 730 430 710 c 1
 430 617 l 1
 394.667 643 351.333 661 300 671 c 1
 300 428 l 1
 352.667 406.667 390 380.5 412 349.5 c 128
 434 318.5 445 278 445 228 c 0
 445 116.667 396.667 53.3333 300 38 c 1
222 458 m 1
 222 670 l 1
 182.667 657.333 163 622.667 163 566 c 0
 163 516.666 182.667 480.666 222 458 c 1
EndSplineSet
Validated: 1
EndChar

StartChar: percent
Encoding: 37 37 4
Width: 512
VWidth: 1024
Flags: HW
LayerCount: 2
Fore
SplineSet
61 285 m 1
 451 582 l 1
 451 500 l 1
 61 203 l 1
 61 285 l 1
163.5 776 m 128
 205.167 776 237.833 762 261.5 734 c 128
 285.167 706 297 665.333 297 612 c 128
 297 558.667 285.167 518.167 261.5 490.5 c 128
 237.833 462.833 205.167 449 163.5 449 c 128
 121.833 449 89.3333 462.833 66 490.5 c 128
 42.6667 518.167 31 558.667 31 612 c 128
 31 665.333 42.6667 706 66 734 c 128
 89.3334 762 121.833 776 163.5 776 c 128
348.5 336 m 128
 390.167 336 422.667 322 446 294 c 128
 469.333 266 481 225.333 481 172 c 128
 481 118.667 469.333 78 446 50 c 128
 422.667 22 390.167 8 348.5 8 c 128
 306.833 8 274.166 22 250.5 50 c 128
 226.833 78 215 118.667 215 172 c 128
 215 225.333 226.833 266 250.5 294 c 128
 274.167 322 306.833 336 348.5 336 c 128
164 518 m 128
 199.333 518 217 549.5 217 612.5 c 128
 217 675.5 199.333 707 164 707 c 128
 128.667 707 111 675.5 111 612.5 c 128
 111 549.5 128.667 518 164 518 c 128
348 78 m 128
 383.333 78 401 109.333 401 172 c 128
 401 234.667 383.333 266 348 266 c 128
 312.667 266 295 234.667 295 172 c 128
 295 109.333 312.667 78 348 78 c 128
EndSplineSet
Validated: 1
EndChar

StartChar: ampersand
Encoding: 38 38 5
Width: 512
VWidth: 1024
Flags: HW
LayerCount: 2
Fore
SplineSet
115 195 m 0
 115 121 158 84 244 84 c 0
 279.333 84 311.333 89 340 99 c 1
 340 351 l 1
 326 357 299.667 370.333 261 391 c 1
 163.667 320.333 115 255 115 195 c 0
74 617 m 1
 74 664.333 90 702.667 122 732 c 128
 154 761.333 197 776 251 776 c 0
 291 776 328.667 772.667 364 766 c 1
 364 689 l 1
 325.333 699.667 287.666 705 251 705 c 0
 222.333 705 199.833 697.333 183.5 682 c 128
 167.167 666.665 159 646.332 159 621 c 0
 159 588.333 171.167 559.333 195.5 534 c 128
 219.833 508.667 268 478 340 442 c 1
 340 571 l 1
 425 571 l 1
 425 404 l 1
 494 375 l 1
 494 283 l 1
 425 312 l 1
 425 35 l 1
 363 17 302.667 8 244 8 c 0
 173.333 8 119.833 24.1667 83.5 56.5 c 128
 47.1667 88.8333 29 136 29 198 c 0
 29 234.667 41.5 271.833 66.5 309.5 c 128
 91.5 347.167 133 388.667 191 434 c 1
 149 464 119.167 493.333 101.5 522 c 128
 83.8333 550.668 74.6666 582.334 74 617 c 1
EndSplineSet
Validated: 1
EndChar

StartChar: quotesingle
Encoding: 39 39 6
Width: 512
VWidth: 1024
Flags: HW
LayerCount: 2
Fore
SplineSet
200 817 m 1
 312 817 l 1
 287 530 l 1
 225 530 l 1
 200 817 l 1
EndSplineSet
Validated: 1
EndChar

StartChar: parenleft
Encoding: 40 40 7
Width: 512
VWidth: 1024
Flags: HW
LayerCount: 2
Fore
SplineSet
128 341 m 128
 128 529 194.333 684.333 327 807 c 1
 404 807 l 1
 270.667 681 204 525.5 204 340.5 c 128
 204 155.5 270.667 0.333336 404 -125 c 1
 327 -125 l 1
 194.333 -2.33334 128 153 128 341 c 128
EndSplineSet
Validated: 1
EndChar

StartChar: parenright
Encoding: 41 41 8
Width: 512
VWidth: 1024
Flags: HW
LayerCount: 2
Fore
SplineSet
384 341 m 128
 384 153 317.667 -2.33333 185 -125 c 1
 108 -125 l 1
 241.333 0.333328 308 155.5 308 340.5 c 128
 308 525.5 241.333 681 108 807 c 1
 185 807 l 1
 317.667 684.333 384 529 384 341 c 128
EndSplineSet
Validated: 1
EndChar

StartChar: asterisk
Encoding: 42 42 9
Width: 512
VWidth: 1024
Flags: HW
LayerCount: 2
Fore
SplineSet
219 786 m 1
 293 786 l 1
 290 613 l 1
 454 670 l 1
 476 600 l 1
 311 549 l 1
 415 411 l 1
 355 368 l 1
 256 509 l 1
 157 368 l 1
 97 411 l 1
 201 549 l 1
 36 600 l 1
 58 670 l 1
 222 613 l 1
 219 786 l 1
EndSplineSet
Validated: 1
EndChar

StartChar: plus
Encoding: 43 43 10
Width: 512
VWidth: 1024
Flags: HW
LayerCount: 2
Fore
SplineSet
298 587 m 1
 298 368 l 1
 451 368 l 1
 451 294 l 1
 298 294 l 1
 298 75 l 1
 214 75 l 1
 214 294 l 1
 61 294 l 1
 61 368 l 1
 214 368 l 1
 214 587 l 1
 298 587 l 1
EndSplineSet
Validated: 1
EndChar

StartChar: comma
Encoding: 44 44 11
Width: 512
VWidth: 1024
Flags: HW
LayerCount: 2
Fore
SplineSet
215 172 m 1
 338 172 l 1
 225 -115 l 1
 154 -115 l 1
 215 172 l 1
EndSplineSet
Validated: 1
EndChar

StartChar: hyphen
Encoding: 45 45 12
Width: 512
VWidth: 1024
Flags: HW
LayerCount: 2
Fore
SplineSet
102 294 m 1
 102 368 l 1
 410 368 l 1
 410 294 l 1
 102 294 l 1
EndSplineSet
Validated: 1
EndChar

StartChar: period
Encoding: 46 46 13
Width: 512
VWidth: 1024
Flags: HW
LayerCount: 2
Fore
SplineSet
189 18 m 1
 189 172 l 1
 323 172 l 1
 323 18 l 1
 189 18 l 1
EndSplineSet
Validated: 1
EndChar

StartChar: slash
Encoding: 47 47 14
Width: 512
VWidth: 1024
Flags: HW
LayerCount: 2
Fore
SplineSet
463 766 m 1
 123 -23 l 1
 49 -23 l 1
 389 766 l 1
 463 766 l 1
EndSplineSet
Validated: 1
EndChar

StartChar: zero
Encoding: 48 48 15
Width: 512
VWidth: 1024
Flags: HW
LayerCount: 2
Fore
SplineSet
256 776 m 128
 288.667 776 316.667 769.833 340 757.5 c 128
 363.333 745.167 383.5 724.667 400.5 696 c 128
 417.5 667.333 430.167 628 438.5 578 c 128
 446.833 528 451 466.167 451 392.5 c 128
 451 318.833 446.833 256.833 438.5 206.5 c 128
 430.167 156.167 417.5 116.667 400.5 88 c 128
 383.5 59.3333 363.333 38.8333 340 26.5 c 128
 316.667 14.1667 288.667 8 256 8 c 128
 223.333 8 195.333 14.1667 172 26.5 c 128
 148.667 38.8333 128.5 59.3333 111.5 88 c 128
 94.5 116.667 81.8333 156.167 73.5 206.5 c 128
 65.1667 256.833 61 318.833 61 392.5 c 128
 61.0001 466.167 65.1667 528 73.5 578 c 128
 81.8333 628 94.5 667.333 111.5 696 c 128
 128.5 724.667 148.667 745.167 172 757.5 c 128
 195.333 769.833 223.333 776 256 776 c 128
145 273 m 1
 346 621 l 1
 328 677 298 705 256 705 c 0
 231.333 705 210.833 696 194.5 678 c 128
 178.167 660 165.167 627.5 155.5 580.5 c 128
 145.833 533.5 141 470.667 141 392 c 0
 141 358 142.333 318.333 145 273 c 1
162 177 m 1
 179.333 112.333 210.667 80 256 80 c 0
 280.667 80 301.167 88.8333 317.5 106.5 c 128
 333.833 124.167 346.833 156.5 356.5 203.5 c 128
 366.167 250.5 371 313.333 371 392 c 0
 371 445.334 369 490.667 365 528 c 1
 162 177 l 1
EndSplineSet
Validated: 1
EndChar

StartChar: one
Encoding: 49 49 16
Width: 512
VWidth: 1024
Flags: HW
LayerCount: 2
Fore
SplineSet
264 18 m 1
 264 679 l 1
 262 680 l 1
 85 577 l 1
 85 658 l 1
 264 766 l 1
 348 766 l 1
 348 18 l 1
 264 18 l 1
EndSplineSet
Validated: 1
EndChar

StartChar: two
Encoding: 50 50 17
Width: 512
VWidth: 1024
Flags: HW
LayerCount: 2
Fore
SplineSet
179 94 m 1
 179 92 l 1
 430 92 l 1
 430 18 l 1
 82 18 l 1
 82 92 l 1
 253.333 288.667 339 452 339 582 c 0
 339 660.667 307.333 700 244 700 c 0
 223.333 700 197.333 692.333 166 677 c 128
 134.667 661.667 106.667 643 82 621 c 1
 82 710 l 1
 133.333 754 191.333 776 256 776 c 0
 314 776 356.667 760 384 728 c 128
 411.333 696 425 647.333 425 582 c 0
 425 514 406.5 442.833 369.5 368.5 c 128
 332.5 294.167 269 202.667 179 94 c 1
EndSplineSet
Validated: 1
EndChar

StartChar: three
Encoding: 51 51 18
Width: 512
VWidth: 1024
Flags: HW
LayerCount: 2
Fore
SplineSet
338 690 m 1
 338 692 l 1
 82 692 l 1
 82 766 l 1
 435 766 l 1
 435 692 l 1
 251 458 l 1
 251 456 l 1
 261 456 l 2
 323 456 368.333 438.5 397 403.5 c 128
 425.667 368.5 440 311.667 440 233 c 0
 440 83 373.667 8 241 8 c 0
 191 8 141.333 18.3333 92 39 c 1
 92 128 l 1
 144.667 98.6667 189 84 225 84 c 0
 269 84 301.5 95.8333 322.5 119.5 c 128
 343.5 143.167 354 181 354 233 c 0
 354 294.333 345.5 334.5 328.5 353.5 c 128
 311.5 372.5 277 382 225 382 c 2
 154 382 l 1
 154 456 l 1
 338 690 l 1
EndSplineSet
Validated: 1
EndChar

StartChar: four
Encoding: 52 52 19
Width: 512
VWidth: 1024
Flags: HW
LayerCount: 2
Fore
SplineSet
300 623 m 1
 298 623 l 1
 119 273 l 1
 119 271 l 1
 300 271 l 1
 300 623 l 1
300 198 m 1
 41 198 l 1
 41 282 l 1
 290 766 l 1
 384 766 l 1
 384 271 l 1
 471 271 l 1
 471 198 l 1
 384 198 l 1
 384 18 l 1
 300 18 l 1
 300 198 l 1
EndSplineSet
Validated: 1
EndChar

StartChar: five
Encoding: 53 53 20
Width: 512
VWidth: 1024
Flags: HW
LayerCount: 2
Fore
SplineSet
184 459 m 1
 186 459 l 1
 208.667 479 238.667 489 276 489 c 0
 385.333 489 440 410.667 440 254 c 0
 440 168.667 423.167 106.333 389.5 67 c 128
 355.833 27.6667 306.333 8 241 8 c 0
 190.333 8 140.667 18.3333 92 39 c 1
 92 128 l 1
 143.333 98.6667 191.333 84 236 84 c 0
 314.667 84 354 140.667 354 254 c 0
 354 360.667 321.333 414 256 414 c 0
 224.667 414 197.333 400 174 372 c 1
 97 372 l 1
 108 766 l 1
 420 766 l 1
 420 692 l 1
 191 692 l 1
 184 459 l 1
EndSplineSet
Validated: 1
EndChar

StartChar: six
Encoding: 54 54 21
Width: 512
VWidth: 1024
Flags: HW
LayerCount: 2
Fore
SplineSet
292 776 m 0
 333.333 776 372.667 769.333 410 756 c 1
 410 677 l 1
 375.333 693.667 339.333 702 302 702 c 0
 254 702 219.5 685.5 198.5 652.5 c 128
 177.5 619.5 164.333 556.667 159 464 c 1
 161 464 l 1
 195 498 233.333 515 276 515 c 0
 336 515 380.167 495.833 408.5 457.5 c 128
 436.833 419.167 451 356.333 451 269 c 0
 451 177.667 435 111.333 403 70 c 128
 371 28.6667 323.667 8 261 8 c 0
 217 8 181.667 17.8333 155 37.5 c 128
 128.333 57.1667 107.833 91.8333 93.5 141.5 c 128
 79.1667 191.167 72 259.333 72 346 c 0
 72 454 80.6667 540 98 604 c 128
 115.333 668 139.5 712.667 170.5 738 c 128
 201.5 763.333 242 776 292 776 c 0
261 82 m 0
 297.667 82 324.5 95.3333 341.5 122 c 128
 358.5 148.667 367 197.667 367 269 c 0
 367 333.667 358.833 378.833 342.5 404.5 c 128
 326.167 430.167 300.667 443 266 443 c 0
 194 443 158 388.667 158 280 c 0
 158 206.667 166.5 155.333 183.5 126 c 128
 200.5 96.6667 226.333 82 261 82 c 0
EndSplineSet
Validated: 1
EndChar

StartChar: seven
Encoding: 55 55 22
Width: 512
VWidth: 1024
Flags: HW
LayerCount: 2
Fore
SplineSet
353 690 m 1
 353 692 l 1
 77 692 l 1
 77 766 l 1
 435 766 l 1
 435 692 l 1
 347.667 490 276 265.333 220 18 c 1
 130 18 l 1
 187.333 259.333 261.667 483.333 353 690 c 1
EndSplineSet
Validated: 1
EndChar

StartChar: eight
Encoding: 56 56 23
Width: 512
VWidth: 1024
Flags: HW
LayerCount: 2
Fore
SplineSet
261 705 m 0
 225 705 197.167 695.5 177.5 676.5 c 128
 157.833 657.5 148 631 148 597 c 0
 148 560.333 158 528.333 178 501 c 128
 198 473.667 224 456.333 256 449 c 1
 291.333 458.333 318.833 475.833 338.5 501.5 c 128
 358.167 527.167 368 559 368 597 c 0
 368 629 358.167 655 338.5 675 c 128
 318.833 695 293 705 261 705 c 0
256 8 m 128
 190.667 8 140.167 25.5 104.5 60.5 c 128
 68.8333 95.5 51 146.333 51 213 c 0
 51 259.667 62.3333 300.333 85 335 c 128
 107.667 369.667 139 395.333 179 412 c 1
 179 414 l 1
 146.333 429.333 119.5 454.333 98.5 489 c 128
 77.5 523.667 67 559.667 67 597 c 0
 67 653 83.6667 696.833 117 728.5 c 128
 150.333 760.167 196.667 776 256 776 c 128
 315.334 776 361.667 760 395 728 c 128
 428.333 696 445 652.333 445 597 c 0
 445 559 434.667 523.667 414 491 c 128
 393.333 458.333 366.333 434.333 333 419 c 1
 333 417 l 1
 373 401 404.333 375.333 427 340 c 128
 449.667 304.667 461 262.333 461 213 c 0
 461 146.333 443.167 95.5 407.5 60.5 c 128
 371.833 25.5 321.333 8 256 8 c 128
261 80 m 0
 297 80 325.667 91.3333 347 114 c 128
 368.333 136.667 379 169.667 379 213 c 0
 379 301.667 336.333 356.333 251 377 c 1
 209 365.667 178.167 347 158.5 321 c 128
 138.833 295 129 259 129 213 c 0
 129 171 141 138.333 165 115 c 128
 189 91.6667 221 80 261 80 c 0
EndSplineSet
Validated: 1
EndChar

StartChar: nine
Encoding: 57 57 24
Width: 512
VWidth: 1024
Flags: HW
LayerCount: 2
Fore
SplineSet
220 8 m 0
 178.667 8 139.333 15 102 29 c 1
 102 111 l 1
 138 93 174 84 210 84 c 0
 258 84 292.5 100.167 313.5 132.5 c 128
 334.5 164.833 347.667 227.667 353 321 c 1
 351 321 l 1
 317 286.333 278.667 269 236 269 c 0
 178.667 269 135.167 289.167 105.5 329.5 c 128
 75.8333 369.833 61 435 61 525 c 0
 61 611 76.8333 674.333 108.5 715 c 128
 140.167 755.667 187.667 776 251 776 c 0
 297.667 776 334.167 766.5 360.5 747.5 c 128
 386.834 728.5 406.667 694.167 420 644.5 c 128
 433.333 594.833 440 526 440 438 c 0
 440 330 431.333 244 414 180 c 128
 396.667 116 372.5 71.3333 341.5 46 c 128
 310.5 20.6667 270 8 220 8 c 0
251 702 m 0
 213.667 702 186.667 689.167 170 663.5 c 128
 153.333 637.833 145 591.833 145 525.5 c 128
 145 459.167 153.667 411.833 171 383.5 c 128
 188.333 355.167 213.333 341 246 341 c 0
 279.334 341 305.667 355.167 325 383.5 c 128
 344.333 411.834 354 455.667 354 515 c 0
 354 583 345.5 631.167 328.5 659.5 c 128
 311.5 687.833 285.667 702 251 702 c 0
EndSplineSet
Validated: 1
EndChar

StartChar: colon
Encoding: 58 58 25
Width: 512
VWidth: 1024
Flags: HW
LayerCount: 2
Fore
SplineSet
195 418 m 1
 195 571 l 1
 317 571 l 1
 317 418 l 1
 195 418 l 1
195 18 m 1
 195 172 l 1
 317 172 l 1
 317 18 l 1
 195 18 l 1
EndSplineSet
Validated: 1
EndChar

StartChar: semicolon
Encoding: 59 59 26
Width: 512
VWidth: 1024
Flags: HW
LayerCount: 2
Fore
SplineSet
205 172 m 1
 328 172 l 1
 215 -115 l 1
 143 -115 l 1
 205 172 l 1
205 418 m 1
 205 571 l 1
 328 571 l 1
 328 418 l 1
 205 418 l 1
EndSplineSet
Validated: 1
EndChar

StartChar: less
Encoding: 60 60 27
Width: 512
VWidth: 1024
Flags: HW
LayerCount: 2
Fore
SplineSet
445 541 m 1
 108 332 l 1
 108 330 l 1
 445 121 l 1
 445 39 l 1
 56 290 l 1
 56 372 l 1
 445 623 l 1
 445 541 l 1
EndSplineSet
Validated: 1
EndChar

StartChar: equal
Encoding: 61 61 28
Width: 512
VWidth: 1024
Flags: HW
LayerCount: 2
Fore
SplineSet
61 400 m 1
 61 474 l 1
 451 474 l 1
 451 400 l 1
 61 400 l 1
61 187 m 1
 61 261 l 1
 451 261 l 1
 451 187 l 1
 61 187 l 1
EndSplineSet
Validated: 1
EndChar

StartChar: greater
Encoding: 62 62 29
Width: 512
VWidth: 1024
Flags: HW
LayerCount: 2
Fore
SplineSet
67 541 m 1
 67 623 l 1
 456 372 l 1
 456 290 l 1
 67 39 l 1
 67 121 l 1
 404 330 l 1
 404 332 l 1
 67 541 l 1
EndSplineSet
Validated: 1
EndChar

StartChar: question
Encoding: 63 63 30
Width: 512
VWidth: 1024
Flags: HW
LayerCount: 2
Fore
SplineSet
456 612 m 0
 456 584 451.167 557.833 441.5 533.5 c 128
 431.833 509.167 422 490.5 412 477.5 c 128
 402 464.5 387.667 447.667 369 427 c 0
 349 404.333 334.167 386.5 324.5 373.5 c 128
 314.833 360.5 305.333 341.833 296 317.5 c 128
 286.667 293.167 282 267 282 239 c 1
 200 239 l 1
 200 276.333 205.5 310.833 216.5 342.5 c 128
 227.5 374.167 238.5 397.333 249.5 412 c 128
 260.5 426.667 276.667 446 298 470 c 0
 314.667 488.667 327 503.167 335 513.5 c 128
 343 523.833 350.833 538 358.5 556 c 128
 366.167 574 370 592.667 370 612 c 0
 370 640 359.833 661.667 339.5 677 c 128
 319.167 692.333 289.667 700 251 700 c 0
 193 700 131.667 679.333 67 638 c 1
 67 730 l 1
 130.333 760.667 195 776 261 776 c 0
 323 776 371 761.667 405 733 c 128
 439 704.333 456 664 456 612 c 0
184 18 m 1
 184 152 l 1
 297 152 l 1
 297 18 l 1
 184 18 l 1
EndSplineSet
Validated: 1
EndChar

StartChar: at
Encoding: 64 64 31
Width: 512
VWidth: 1024
Flags: HW
LayerCount: 2
Fore
SplineSet
384 283 m 1
 384 454 l 2
 384 482 378.5 503.5 367.5 518.5 c 128
 356.5 533.5 341.667 541 323 541 c 0
 295.667 541 276.5 530.833 265.5 510.5 c 128
 254.5 490.167 249 450.667 249 392 c 0
 249 336 254.833 297.333 266.5 276 c 128
 278.167 254.667 297 244 323 244 c 0
 353 244 373.333 257 384 283 c 1
169 392 m 0
 169 538.667 216.667 612 312 612 c 0
 338 612 363 603.667 387 587 c 1
 389 587 l 1
 389 592 l 2
 389 626 379.667 652.833 361 672.5 c 128
 342.333 692.167 317.666 702 287 702 c 0
 230.333 702 188 678 160 630 c 128
 132 582 118 502.667 118 392 c 0
 118 278.667 131.667 198.667 159 152 c 128
 186.333 105.333 229 82 287 82 c 0
 329 82 371.667 95 415 121 c 1
 415 39 l 1
 374.333 18.3333 330 8 282 8 c 0
 198.667 8 136.833 37.3333 96.5 96 c 128
 56.1667 154.667 36 253.333 36 392 c 0
 36 526.667 56.6667 624.334 98 685 c 128
 139.333 745.667 200.667 776 282 776 c 0
 341.333 776 386.833 759 418.5 725 c 128
 450.167 691 466 639.667 466 571 c 2
 466 239 l 1
 421.333 194.333 373.666 172 323 172 c 0
 271 172 232.333 188.667 207 222 c 128
 181.667 255.333 169 312 169 392 c 0
EndSplineSet
Validated: 1
EndChar

StartChar: A
Encoding: 65 65 32
Width: 512
VWidth: 1024
Flags: HW
LayerCount: 2
Fore
SplineSet
255 694 m 1
 253 694 l 1
 168 305 l 1
 340 305 l 1
 255 694 l 1
356 233 m 1
 152 233 l 1
 104 18 l 1
 20 18 l 1
 205 766 l 1
 307 766 l 1
 492 18 l 1
 403 18 l 1
 356 233 l 1
EndSplineSet
Validated: 1
EndChar

StartChar: B
Encoding: 66 66 33
Width: 512
VWidth: 1024
Flags: HW
LayerCount: 2
Fore
SplineSet
161 459 m 1
 207 459 l 2
 261.667 459 301.5 469 326.5 489 c 128
 351.5 509 364 540 364 582 c 0
 364 620.668 351.667 650.835 327 672.5 c 128
 302.333 694.167 267.333 705 222 705 c 0
 197.333 705 177 702 161 696 c 1
 161 459 l 1
161 387 m 1
 161 88 l 1
 186.333 82.6667 217 80 253 80 c 0
 339 80 382 134.667 382 244 c 0
 382 339.333 327 387 217 387 c 2
 161 387 l 1
466 233 m 0
 466 83 389.333 8 236 8 c 0
 181.333 8 128.333 13.3333 77 24 c 1
 77 761 l 1
 128.333 771 181.333 776 236 776 c 0
 375.333 776 445 714.667 445 592 c 0
 445 550 434.667 514.667 414 486 c 128
 393.333 457.333 364.666 438.333 328 429 c 1
 328 427 l 1
 367.333 419.667 400.167 397.833 426.5 361.5 c 128
 452.833 325.167 466 282.333 466 233 c 0
EndSplineSet
Validated: 1
EndChar

StartChar: C
Encoding: 67 67 34
Width: 512
VWidth: 1024
Flags: HW
LayerCount: 2
Fore
SplineSet
56 392 m 0
 56 526.667 76.6667 624.334 118 685 c 128
 159.333 745.667 220.667 776 302 776 c 0
 347.333 776 390 765.667 430 745 c 1
 430 669 l 1
 389.333 691 348.333 702 307 702 c 0
 194.333 702 138 598.667 138 392 c 0
 138 280 152.333 200.333 181 153 c 128
 209.667 105.667 251.667 82 307 82 c 0
 349.667 82 392.333 95 435 121 c 1
 435 39 l 1
 395 18.3333 350.667 8 302 8 c 0
 218.667 8 156.833 37.3333 116.5 96 c 128
 76.1667 154.667 56 253.333 56 392 c 0
EndSplineSet
Validated: 1
EndChar

StartChar: D
Encoding: 68 68 35
Width: 512
VWidth: 1024
Flags: HW
LayerCount: 2
Fore
SplineSet
392 392 m 0
 392 506.667 377.167 587 347.5 633 c 128
 317.833 679 271 702 207 702 c 0
 184.333 702 165.667 699.333 151 694 c 1
 151 90 l 1
 165.667 84.6667 184.333 82 207 82 c 0
 251 82 285.833 90.3333 311.5 107 c 128
 337.167 123.667 357 154.833 371 200.5 c 128
 385 246.167 392 310 392 392 c 0
476 392 m 0
 476 250.667 454.333 151.333 411 94 c 128
 367.667 36.6667 299.667 8 207 8 c 0
 159 8 112.333 13.3333 67 24 c 1
 67 761 l 1
 112.333 771 159 776 207 776 c 0
 300.333 776 368.5 746.833 411.5 688.5 c 128
 454.5 630.166 476 531.333 476 392 c 0
EndSplineSet
Validated: 1
EndChar

StartChar: E
Encoding: 69 69 36
Width: 512
VWidth: 1024
Flags: HW
LayerCount: 2
Fore
SplineSet
166 692 m 1
 166 459 l 1
 420 459 l 1
 420 387 l 1
 166 387 l 1
 166 92 l 1
 430 92 l 1
 430 18 l 1
 82 18 l 1
 82 766 l 1
 430 766 l 1
 430 692 l 1
 166 692 l 1
EndSplineSet
Validated: 1
EndChar

StartChar: F
Encoding: 70 70 37
Width: 512
VWidth: 1024
Flags: HW
LayerCount: 2
Fore
SplineSet
176 387 m 1
 176 18 l 1
 92 18 l 1
 92 766 l 1
 430 766 l 1
 430 692 l 1
 176 692 l 1
 176 459 l 1
 420 459 l 1
 420 387 l 1
 176 387 l 1
EndSplineSet
Validated: 1
EndChar

StartChar: G
Encoding: 71 71 38
Width: 512
VWidth: 1024
Flags: HW
LayerCount: 2
Fore
SplineSet
379 105 m 1
 379 387 l 1
 220 387 l 1
 220 459 l 1
 461 459 l 1
 461 49 l 1
 406.333 21.6667 348.333 8 287 8 c 0
 206.333 8 145.167 38.3333 103.5 99 c 128
 61.8333 159.667 41 257.333 41 392 c 0
 41 526 62.6667 623.5 106 684.5 c 128
 149.333 745.5 214.667 776 302 776 c 0
 342 776 386.333 767.667 435 751 c 1
 435 672 l 1
 390.333 692 346 702 302 702 c 0
 242.667 702 197.667 677.5 167 628.5 c 128
 136.333 579.5 121 500.667 121 392 c 0
 121 185.333 178 82 292 82 c 0
 322.667 82 351.667 89.6667 379 105 c 1
EndSplineSet
Validated: 1
EndChar

StartChar: H
Encoding: 72 72 39
Width: 512
VWidth: 1024
Flags: HW
LayerCount: 2
Fore
SplineSet
143 766 m 1
 143 461 l 1
 365 461 l 1
 365 766 l 1
 451 766 l 1
 451 18 l 1
 365 18 l 1
 365 387 l 1
 143 387 l 1
 143 18 l 1
 61 18 l 1
 61 766 l 1
 143 766 l 1
EndSplineSet
Validated: 1
EndChar

StartChar: I
Encoding: 73 73 40
Width: 512
VWidth: 1024
Flags: HW
LayerCount: 2
Fore
SplineSet
420 18 m 1
 92 18 l 1
 92 90 l 1
 213 90 l 1
 213 694 l 1
 92 694 l 1
 92 766 l 1
 420 766 l 1
 420 694 l 1
 299 694 l 1
 299 90 l 1
 420 90 l 1
 420 18 l 1
EndSplineSet
Validated: 1
EndChar

StartChar: J
Encoding: 74 74 41
Width: 512
VWidth: 1024
Flags: HW
LayerCount: 2
Fore
SplineSet
410 766 m 1
 410 213 l 2
 410 137.667 395.167 84.6667 365.5 54 c 128
 335.833 23.3333 285.666 8 215 8 c 0
 159 8 107.667 18.3333 61 39 c 1
 61 128 l 1
 81 116.667 106.833 106.167 138.5 96.5 c 128
 170.167 86.8333 195.667 82 215 82 c 0
 251 82 278 92.3333 296 113 c 128
 314 133.667 323 167.667 323 215 c 2
 323 694 l 1
 154 694 l 1
 154 766 l 1
 410 766 l 1
EndSplineSet
Validated: 1
EndChar

StartChar: K
Encoding: 75 75 42
Width: 512
VWidth: 1024
Flags: HW
LayerCount: 2
Fore
SplineSet
161 428 m 1
 163 428 l 1
 374 766 l 1
 471 766 l 1
 241 408 l 1
 476 18 l 1
 379 18 l 1
 163 387 l 1
 161 387 l 1
 161 18 l 1
 77 18 l 1
 77 766 l 1
 161 766 l 1
 161 428 l 1
EndSplineSet
Validated: 1
EndChar

StartChar: L
Encoding: 76 76 43
Width: 512
VWidth: 1024
Flags: HW
LayerCount: 2
Fore
SplineSet
186 766 m 1
 186 92 l 1
 430 92 l 1
 430 18 l 1
 102 18 l 1
 102 766 l 1
 186 766 l 1
EndSplineSet
Validated: 1
EndChar

StartChar: M
Encoding: 77 77 44
Width: 512
VWidth: 1024
Flags: HW
LayerCount: 2
Fore
SplineSet
387 571 m 1
 385 571 l 1
 295 223 l 1
 213 223 l 1
 123 571 l 1
 121 571 l 1
 121 18 l 1
 41 18 l 1
 41 766 l 1
 135 766 l 1
 257 305 l 1
 259 305 l 1
 381 766 l 1
 471 766 l 1
 471 18 l 1
 387 18 l 1
 387 571 l 1
EndSplineSet
Validated: 1
EndChar

StartChar: N
Encoding: 78 78 45
Width: 512
VWidth: 1024
Flags: HW
LayerCount: 2
Fore
SplineSet
155 582 m 1
 153 582 l 1
 153 18 l 1
 67 18 l 1
 67 766 l 1
 153 766 l 1
 361 203 l 1
 364 203 l 1
 364 766 l 1
 445 766 l 1
 445 18 l 1
 364 18 l 1
 155 582 l 1
EndSplineSet
Validated: 1
EndChar

StartChar: O
Encoding: 79 79 46
Width: 512
VWidth: 1024
Flags: HW
LayerCount: 2
Fore
SplineSet
256 776 m 128
 329.333 776 383.5 747.167 418.5 689.5 c 128
 453.5 631.833 471 532.667 471 392 c 128
 471 251.333 453.5 152.167 418.5 94.5 c 128
 383.5 36.8333 329.333 8 256 8 c 128
 182.667 8 128.5 36.8333 93.5 94.5 c 128
 58.5 152.167 41 251.333 41 392 c 128
 41 532.667 58.5 631.834 93.5 689.5 c 128
 128.5 747.167 182.667 776 256 776 c 128
256 82 m 128
 286 82 310.167 90.6667 328.5 108 c 128
 346.833 125.333 361.5 157.167 372.5 203.5 c 128
 383.5 249.833 389 312.667 389 392 c 128
 389 471.333 383.5 534.167 372.5 580.5 c 128
 361.5 626.833 346.833 658.667 328.5 676 c 128
 310.167 693.333 286 702 256 702 c 128
 226 702 201.833 693.333 183.5 676 c 128
 165.167 658.665 150.5 626.832 139.5 580.5 c 128
 128.5 534.167 123 471.333 123 392 c 128
 123 312.667 128.5 249.833 139.5 203.5 c 128
 150.5 157.167 165.167 125.333 183.5 108 c 128
 201.833 90.6667 226 82 256 82 c 128
EndSplineSet
Validated: 1
EndChar

StartChar: P
Encoding: 80 80 47
Width: 512
VWidth: 1024
Flags: HW
LayerCount: 2
Fore
SplineSet
384 551 m 0
 384 605 371.667 644.167 347 668.5 c 128
 322.333 692.833 284 705 232 705 c 0
 204 705 180.333 702 161 696 c 1
 161 397 l 1
 181 393.667 204.667 392 232 392 c 0
 284.667 392 323.167 404.167 347.5 428.5 c 128
 371.833 452.834 384 493.667 384 551 c 0
466 551 m 0
 466 469 448 410.167 412 374.5 c 128
 376 338.833 319.667 321 243 321 c 0
 219 321 191.667 322.667 161 326 c 1
 161 18 l 1
 77 18 l 1
 77 761 l 1
 130.333 771 185 776 241 776 c 0
 318.333 776 375.167 758.167 411.5 722.5 c 128
 447.833 686.833 466 629.667 466 551 c 0
EndSplineSet
Validated: 1
EndChar

StartChar: Q
Encoding: 81 81 48
Width: 512
VWidth: 1024
Flags: HW
LayerCount: 2
Fore
SplineSet
256 776 m 128
 329.333 776 383.5 747.167 418.5 689.5 c 128
 453.5 631.833 471 532.667 471 392 c 0
 471 206 437 88.6667 369 40 c 1
 369 38 l 1
 397 23.3333 421.833 0.666666 443.5 -30 c 128
 465.167 -60.6666 481.333 -95.6666 492 -135 c 1
 401 -135 l 1
 387 -81.6667 368.667 -44.5 346 -23.5 c 128
 323.333 -2.5 293.333 8 256 8 c 0
 182.667 8 128.5 36.8333 93.5 94.5 c 128
 58.5 152.167 41 251.333 41 392 c 128
 41 532.667 58.5 631.834 93.5 689.5 c 128
 128.5 747.167 182.667 776 256 776 c 128
256 82 m 128
 286 82 310.167 90.6667 328.5 108 c 128
 346.833 125.333 361.5 157.167 372.5 203.5 c 128
 383.5 249.833 389 312.667 389 392 c 128
 389 471.333 383.5 534.167 372.5 580.5 c 128
 361.5 626.833 346.833 658.667 328.5 676 c 128
 310.167 693.333 286 702 256 702 c 128
 226 702 201.833 693.333 183.5 676 c 128
 165.167 658.665 150.5 626.832 139.5 580.5 c 128
 128.5 534.167 123 471.333 123 392 c 128
 123 312.667 128.5 249.833 139.5 203.5 c 128
 150.5 157.167 165.167 125.333 183.5 108 c 128
 201.833 90.6667 226 82 256 82 c 128
EndSplineSet
Validated: 1
EndChar

StartChar: R
Encoding: 82 82 49
Width: 512
VWidth: 1024
Flags: HW
LayerCount: 2
Fore
SplineSet
379 571 m 0
 379 660.333 328.333 705 227 705 c 0
 199 705 175.333 702 156 696 c 1
 156 418 l 1
 217 418 l 2
 276.334 418 318.167 429.333 342.5 452 c 128
 366.833 474.667 379 514.333 379 571 c 0
156 346 m 1
 156 18 l 1
 72 18 l 1
 72 761 l 1
 125.333 771 180 776 236 776 c 0
 312 776 368.5 759.167 405.5 725.5 c 128
 442.5 691.833 461 640.333 461 571 c 0
 461 473.667 423.667 408 349 374 c 1
 349 372 l 1
 370.333 361.333 393 316.666 417 238 c 1
 481 18 l 1
 393 18 l 1
 333 240 l 2
 321 283.333 306.833 311.833 290.5 325.5 c 128
 274.167 339.167 246.333 346 207 346 c 2
 156 346 l 1
EndSplineSet
Validated: 1
EndChar

StartChar: S
Encoding: 83 83 50
Width: 512
VWidth: 1024
Flags: HW
LayerCount: 2
Fore
SplineSet
266 702 m 0
 234 702 207.667 691.667 187 671 c 128
 166.333 650.333 156 624 156 592 c 0
 156 558 163.333 529.833 178 507.5 c 128
 192.667 485.167 217 466.333 251 451 c 0
 327 417 379.333 381.833 408 345.5 c 128
 436.667 309.167 451 261.667 451 203 c 0
 451 138.333 433.333 89.6666 398 57 c 128
 362.667 24.3333 312 8 246 8 c 0
 184 8 127.667 27 77 65 c 1
 77 162 l 1
 131.667 108.667 189.667 82 251 82 c 0
 328.333 82 367 122.333 367 203 c 0
 367 240.333 358 271.333 340 296 c 128
 322 320.667 292.333 342.333 251 361 c 0
 187 389.667 141.167 422.333 113.5 459 c 128
 85.8333 495.667 72 540 72 592 c 0
 72 646.667 89.3334 691 124 725 c 128
 158.667 759 204.333 776 261 776 c 0
 297 776 326.667 773.333 350 768 c 128
 373.333 762.667 400 751.667 430 735 c 1
 430 643 l 1
 377.333 682.333 322.667 702 266 702 c 0
EndSplineSet
Validated: 1
EndChar

StartChar: T
Encoding: 84 84 51
Width: 512
VWidth: 1024
Flags: HW
LayerCount: 2
Fore
SplineSet
214 18 m 1
 214 694 l 1
 56 694 l 1
 56 766 l 1
 456 766 l 1
 456 694 l 1
 298 694 l 1
 298 18 l 1
 214 18 l 1
EndSplineSet
Validated: 1
EndChar

StartChar: U
Encoding: 85 85 52
Width: 512
VWidth: 1024
Flags: HW
LayerCount: 2
Fore
SplineSet
256 8 m 128
 191.333 8 142.667 24.6667 110 58 c 128
 77.3333 91.3333 61 143 61 213 c 2
 61 766 l 1
 147 766 l 1
 147 233 l 2
 147 178.333 156.167 139.5 174.5 116.5 c 128
 192.833 93.5 220.667 82 258 82 c 128
 295.334 82 323.167 93.5 341.5 116.5 c 128
 359.833 139.5 369 178.333 369 233 c 2
 369 766 l 1
 451 766 l 1
 451 213 l 2
 451 143 434.667 91.3333 402 58 c 128
 369.333 24.6667 320.667 8 256 8 c 128
EndSplineSet
Validated: 1
EndChar

StartChar: V
Encoding: 86 86 53
Width: 512
VWidth: 1024
Flags: HW
LayerCount: 2
Fore
SplineSet
259 90 m 1
 397 766 l 1
 481 766 l 1
 307 18 l 1
 205 18 l 1
 31 766 l 1
 119 766 l 1
 257 90 l 1
 259 90 l 1
EndSplineSet
Validated: 1
EndChar

StartChar: W
Encoding: 87 87 54
Width: 512
VWidth: 1024
Flags: HW
LayerCount: 2
Fore
SplineSet
157 141 m 1
 159 141 l 1
 214 664 l 1
 306 664 l 1
 361 141 l 1
 364 141 l 1
 410 766 l 1
 486 766 l 1
 425 18 l 1
 313 18 l 1
 257 551 l 1
 255 551 l 1
 199 18 l 1
 87 18 l 1
 26 766 l 1
 111 766 l 1
 157 141 l 1
EndSplineSet
Validated: 1
EndChar

StartChar: X
Encoding: 88 88 55
Width: 512
VWidth: 1024
Flags: HW
LayerCount: 2
Fore
SplineSet
257 469 m 1
 259 469 l 1
 374 766 l 1
 459 766 l 1
 307 402 l 1
 461 18 l 1
 369 18 l 1
 255 331 l 1
 253 331 l 1
 138 18 l 1
 51 18 l 1
 205 402 l 1
 53 766 l 1
 143 766 l 1
 257 469 l 1
EndSplineSet
Validated: 1
EndChar

StartChar: Y
Encoding: 89 89 56
Width: 512
VWidth: 1024
Flags: HW
LayerCount: 2
Fore
SplineSet
257 402 m 1
 259 402 l 1
 394 766 l 1
 481 766 l 1
 298 315 l 1
 298 18 l 1
 214 18 l 1
 214 315 l 1
 31 766 l 1
 123 766 l 1
 257 402 l 1
EndSplineSet
Validated: 1
EndChar

StartChar: Z
Encoding: 90 90 57
Width: 512
VWidth: 1024
Flags: HW
LayerCount: 2
Fore
SplineSet
343 692 m 1
 343 694 l 1
 77 694 l 1
 77 766 l 1
 435 766 l 1
 435 694 l 1
 169 92 l 1
 169 90 l 1
 435 90 l 1
 435 18 l 1
 77 18 l 1
 77 90 l 1
 343 692 l 1
EndSplineSet
Validated: 1
EndChar

StartChar: bracketleft
Encoding: 91 91 58
Width: 512
VWidth: 1024
Flags: HW
LayerCount: 2
Fore
SplineSet
399 745 m 1
 217 745 l 1
 217 -63 l 1
 399 -63 l 1
 399 -125 l 1
 143 -125 l 1
 143 807 l 1
 399 807 l 1
 399 745 l 1
EndSplineSet
Validated: 1
EndChar

StartChar: backslash
Encoding: 92 92 59
Width: 512
VWidth: 1024
Flags: HW
LayerCount: 2
Fore
SplineSet
49 766 m 1
 123 766 l 1
 463 -23 l 1
 389 -23 l 1
 49 766 l 1
EndSplineSet
Validated: 1
EndChar

StartChar: bracketright
Encoding: 93 93 60
Width: 512
VWidth: 1024
Flags: HW
LayerCount: 2
Fore
SplineSet
113 745 m 1
 113 807 l 1
 369 807 l 1
 369 -125 l 1
 113 -125 l 1
 113 -63 l 1
 295 -63 l 1
 295 745 l 1
 113 745 l 1
EndSplineSet
Validated: 1
EndChar

StartChar: asciicircum
Encoding: 94 94 61
Width: 512
VWidth: 1024
Flags: HW
LayerCount: 2
Fore
SplineSet
257 715 m 1
 255 715 l 1
 104 305 l 1
 31 305 l 1
 205 766 l 1
 307 766 l 1
 481 305 l 1
 408 305 l 1
 257 715 l 1
EndSplineSet
Validated: 1
EndChar

StartChar: underscore
Encoding: 95 95 62
Width: 512
VWidth: 1024
Flags: HW
LayerCount: 2
Fore
SplineSet
51 -125 m 1
 51 -68 l 1
 461 -68 l 1
 461 -125 l 1
 51 -125 l 1
EndSplineSet
Validated: 1
EndChar

StartChar: grave
Encoding: 96 96 63
Width: 512
VWidth: 1024
Flags: HW
LayerCount: 2
Fore
SplineSet
133 848 m 1
 256 848 l 1
 358 561 l 1
 287 561 l 1
 133 848 l 1
EndSplineSet
Validated: 1
EndChar

StartChar: a
Encoding: 97 97 64
Width: 512
VWidth: 1024
Flags: HW
LayerCount: 2
Fore
SplineSet
261 561 m 0
 329.667 561 376.667 547.333 402 520 c 128
 427.333 492.667 440 441.667 440 367 c 2
 440 18 l 1
 367 18 l 1
 365 95 l 1
 362 95 l 1
 330 37 279.333 8 210 8 c 0
 165.333 8 129.333 22.1667 102 50.5 c 128
 74.6667 78.8333 61 117.667 61 167 c 0
 61 229 82 276.833 124 310.5 c 128
 166 344.167 228.667 361 312 361 c 2
 361 361 l 1
 361 387 l 2
 361 425.667 353.5 453 338.5 469 c 128
 323.5 485 297.667 493 261 493 c 0
 238.333 493 209.667 488.833 175 480.5 c 128
 140.333 472.167 111 462.667 87 452 c 1
 87 525 l 1
 111 535.671 140 544.337 174 551 c 128
 208 557.667 237 561 261 561 c 0
361 300 m 1
 312 300 l 2
 196 300 138 257.333 138 172 c 0
 138 141.333 145.833 117.833 161.5 101.5 c 128
 177.167 85.1667 198.334 77 225 77 c 0
 265.667 77 298.5 93.3334 323.5 126 c 128
 348.5 158.667 361 204.667 361 264 c 2
 361 300 l 1
EndSplineSet
Validated: 1
EndChar

StartChar: b
Encoding: 98 98 65
Width: 512
VWidth: 1024
Flags: HW
LayerCount: 2
Fore
SplineSet
147 474 m 1
 150 474 l 1
 179.333 532 225 561 287 561 c 0
 406.333 561 466 469 466 285 c 0
 466 192.333 449.667 123 417 77 c 128
 384.333 31 341 8 287 8 c 0
 229.667 8 182.667 37 146 95 c 1
 144 95 l 1
 142 18 l 1
 67 18 l 1
 67 766 l 1
 147 766 l 1
 147 474 l 1
385 285 m 0
 385 417.667 345.333 484 266 484 c 0
 231.333 484 202.833 467.167 180.5 433.5 c 128
 158.167 399.833 147 352 147 290 c 2
 147 280 l 2
 147 217.333 158.167 169.167 180.5 135.5 c 128
 202.833 101.833 231.333 85 266 85 c 0
 302.667 85 331.667 101.5 353 134.5 c 128
 374.333 167.5 385 217.667 385 285 c 0
EndSplineSet
Validated: 1
EndChar

StartChar: c
Encoding: 99 99 66
Width: 512
VWidth: 1024
Flags: HW
LayerCount: 2
Fore
SplineSet
72 285 m 0
 72 376.334 90.6667 445.167 128 491.5 c 128
 165.333 537.833 218.333 561 287 561 c 0
 328.333 561 371 552.667 415 536 c 1
 415 454 l 1
 373.667 476 332.667 487 292 487 c 0
 248.667 487 215.167 470 191.5 436 c 128
 167.833 402 156 351.667 156 285 c 0
 156 215.667 168.5 164 193.5 130 c 128
 218.5 96 253 79 297 79 c 0
 337 79 378 91.3333 420 116 c 1
 420 34 l 1
 376 16.6667 333.333 8 292 8 c 0
 222 8 167.833 31 129.5 77 c 128
 91.1666 123 72 192.333 72 285 c 0
EndSplineSet
Validated: 1
EndChar

StartChar: d
Encoding: 100 100 67
Width: 512
VWidth: 1024
Flags: HW
LayerCount: 2
Fore
SplineSet
365 766 m 1
 445 766 l 1
 445 18 l 1
 370 18 l 1
 368 95 l 1
 366 95 l 1
 329.333 37 282.333 8 225 8 c 0
 171 8 127.667 31 95 77 c 128
 62.3333 123 46 192.333 46 285 c 0
 46 469 105.667 561 225 561 c 0
 287 561 332.667 532 362 474 c 1
 365 474 l 1
 365 766 l 1
127 285 m 0
 127 217.667 137.667 167.5 159 134.5 c 128
 180.333 101.5 209.333 85 246 85 c 0
 280.667 85 309.167 101.833 331.5 135.5 c 128
 353.833 169.167 365 217.333 365 280 c 2
 365 290 l 2
 365 352 353.833 399.833 331.5 433.5 c 128
 309.167 467.167 280.667 484 246 484 c 0
 166.667 484 127 417.667 127 285 c 0
EndSplineSet
Validated: 1
EndChar

StartChar: e
Encoding: 101 101 68
Width: 512
VWidth: 1024
Flags: HW
LayerCount: 2
Fore
SplineSet
141 258 m 1
 143.667 194.667 156.667 149 180 121 c 128
 203.333 93 237.333 79 282 79 c 0
 323.333 79 369.333 91.3333 420 116 c 1
 420 34 l 1
 369.333 16.6667 321.333 8 276 8 c 0
 129.333 8 56 100.333 56 285 c 0
 56 381 73.1667 451 107.5 495 c 128
 141.833 539 193 561 261 561 c 0
 323 561 369.167 539.833 399.5 497.5 c 128
 429.833 455.167 445 386 445 290 c 0
 445 282.667 444.333 272 443 258 c 1
 141 258 l 1
141 326 m 1
 365 326 l 1
 364.333 435.333 329.666 490 261 490 c 0
 222.333 490 193.333 477.833 174 453.5 c 128
 154.667 429.167 143.667 386.667 141 326 c 1
EndSplineSet
Validated: 1
EndChar

StartChar: f
Encoding: 102 102 69
Width: 512
VWidth: 1024
Flags: HW
LayerCount: 2
Fore
SplineSet
77 460 m 1
 77 530 l 1
 200 530 l 1
 200 592 l 2
 200 658.667 211.167 706 233.5 734 c 128
 255.833 762 292.333 776 343 776 c 0
 373.667 776 404.333 771 435 761 c 1
 435 687 l 1
 409 699.667 383.333 706 358 706 c 0
 326 706 305.167 697.833 295.5 681.5 c 128
 285.833 665.165 281 628.332 281 571 c 2
 281 530 l 1
 435 530 l 1
 435 460 l 1
 281 460 l 1
 281 18 l 1
 200 18 l 1
 200 460 l 1
 77 460 l 1
EndSplineSet
Validated: 1
EndChar

StartChar: g
Encoding: 103 103 70
Width: 512
VWidth: 1024
Flags: HW
LayerCount: 2
Fore
SplineSet
51 285 m 0
 51 469 110.667 561 230 561 c 0
 286.667 561 333.667 532 371 474 c 1
 373 474 l 1
 375 551 l 1
 451 551 l 1
 451 24 l 2
 451 -61.3333 433.667 -122.833 399 -160.5 c 128
 364.333 -198.167 311.666 -217 241 -217 c 0
 192.333 -217 144.333 -208.333 97 -191 c 1
 97 -110 l 1
 145.667 -134 193.667 -146 241 -146 c 0
 327 -146 370 -89.3333 370 24 c 2
 370 105 l 1
 368 105 l 1
 338.667 47 292.667 18 230 18 c 0
 175.333 18 131.833 40.6667 99.5 86 c 128
 67.1667 131.333 51 197.667 51 285 c 0
132 285 m 0
 132 221.667 142.833 174.167 164.5 142.5 c 128
 186.167 110.833 215 95 251 95 c 0
 286.333 95 315 110.5 337 141.5 c 128
 359 172.5 370 218.667 370 280 c 2
 370 290 l 2
 370 352 358.833 399.833 336.5 433.5 c 128
 314.167 467.167 285.667 484 251 484 c 0
 211 484 181.167 468.167 161.5 436.5 c 128
 141.833 404.833 132 354.333 132 285 c 0
EndSplineSet
Validated: 1
EndChar

StartChar: h
Encoding: 104 104 71
Width: 512
VWidth: 1024
Flags: HW
LayerCount: 2
Fore
SplineSet
451 356 m 2
 451 18 l 1
 372 18 l 1
 372 338 l 2
 372 398 365.167 438 351.5 458 c 128
 337.833 478 312.666 488 276 488 c 0
 242 488 213 469 189 431 c 128
 165 393 153 341.333 153 276 c 2
 153 18 l 1
 72 18 l 1
 72 766 l 1
 153 766 l 1
 153 474 l 1
 155 474 l 1
 167.667 500.667 186.833 521.833 212.5 537.5 c 128
 238.167 553.167 266.333 561 297 561 c 0
 351 561 390.167 545.5 414.5 514.5 c 128
 438.833 483.5 451 430.667 451 356 c 2
EndSplineSet
Validated: 1
EndChar

StartChar: i
Encoding: 105 105 72
Width: 512
VWidth: 1024
Flags: HW
LayerCount: 2
Fore
SplineSet
324 551 m 1
 324 88 l 1
 435 88 l 1
 435 18 l 1
 97 18 l 1
 97 88 l 1
 240 88 l 1
 240 481 l 1
 128 481 l 1
 128 551 l 1
 324 551 l 1
219 674 m 1
 219 797 l 1
 324 797 l 1
 324 674 l 1
 219 674 l 1
EndSplineSet
Validated: 1
EndChar

StartChar: j
Encoding: 106 106 73
Width: 512
VWidth: 1024
Flags: HW
LayerCount: 2
Fore
SplineSet
255 -15 m 2
 255 481 l 1
 133 481 l 1
 133 551 l 1
 339 551 l 1
 339 -15 l 2
 339 -59.6667 336.167 -94.3333 330.5 -119 c 128
 324.833 -143.667 312.333 -163.833 293 -179.5 c 128
 273.667 -195.167 249 -205.333 219 -210 c 128
 189 -214.667 147 -217 93 -217 c 1
 93 -147 l 1
 120.333 -147 141.833 -146.667 157.5 -146 c 128
 173.167 -145.334 187.667 -143.168 201 -139.5 c 128
 214.333 -135.834 224.167 -131.667 230.5 -127 c 128
 236.833 -122.333 242.167 -114.333 246.5 -103 c 128
 250.833 -91.6667 253.333 -79.8334 254 -67.5 c 128
 254.667 -55.1667 255 -37.6667 255 -15 c 2
234 674 m 1
 234 797 l 1
 339 797 l 1
 339 674 l 1
 234 674 l 1
EndSplineSet
Validated: 1
EndChar

StartChar: k
Encoding: 107 107 74
Width: 512
VWidth: 1024
Flags: HW
LayerCount: 2
Fore
SplineSet
471 551 m 1
 236 295 l 1
 471 18 l 1
 374 18 l 1
 163 278 l 1
 163 18 l 1
 82 18 l 1
 82 766 l 1
 163 766 l 1
 163 311 l 1
 375 551 l 1
 471 551 l 1
EndSplineSet
Validated: 1
EndChar

StartChar: l
Encoding: 108 108 75
Width: 512
VWidth: 1024
Flags: HW
LayerCount: 2
Fore
SplineSet
288 172 m 2
 288 126.667 291.5 99.6666 298.5 91 c 128
 305.5 82.3333 327.333 78 364 78 c 0
 386 78 411.333 80 440 84 c 1
 440 13 l 1
 408 9.66667 379 8 353 8 c 0
 291.667 8 251.5 17.8333 232.5 37.5 c 128
 213.5 57.1667 204 98.6667 204 162 c 2
 204 696 l 1
 72 696 l 1
 72 766 l 1
 288 766 l 1
 288 172 l 2
EndSplineSet
Validated: 1
EndChar

StartChar: m
Encoding: 109 109 76
Width: 512
VWidth: 1024
Flags: HW
LayerCount: 2
Fore
SplineSet
297 18 m 1
 217 18 l 1
 217 387 l 1
 216.333 426.334 212.833 452.668 206.5 466 c 128
 200.167 479.333 189 486 173 486 c 0
 151.667 486 134.333 464.667 121 422 c 128
 107.667 379.333 101 313 101 223 c 2
 101 18 l 1
 20 18 l 1
 20 551 l 1
 92 551 l 1
 94 479 l 1
 96 479 l 1
 108 505 122.667 525.167 140 539.5 c 128
 157.333 553.833 175.667 561 195 561 c 0
 215.667 561 232.667 554.667 246 542 c 128
 259.333 529.333 271 508.333 281 479 c 1
 283 479 l 1
 309.667 533.667 345 561 389 561 c 0
 425 561 451.167 550 467.5 528 c 128
 483.833 506 492 466 492 408 c 2
 492 18 l 1
 413 18 l 1
 413 387 l 1
 412.333 427 408.333 453.5 401 466.5 c 128
 393.667 479.5 380.667 486 362 486 c 0
 318.667 486 297 419 297 285 c 2
 297 18 l 1
EndSplineSet
Validated: 1
EndChar

StartChar: n
Encoding: 110 110 77
Width: 512
VWidth: 1024
Flags: HW
LayerCount: 2
Fore
SplineSet
451 356 m 2
 451 18 l 1
 372 18 l 1
 372 338 l 2
 372 398 365.167 438 351.5 458 c 128
 337.833 478 312.666 488 276 488 c 0
 242 488 213 469 189 431 c 128
 165 393 153 341.333 153 276 c 2
 153 18 l 1
 72 18 l 1
 72 551 l 1
 147 551 l 1
 150 474 l 1
 152 474 l 1
 164.667 500 184.333 521 211 537 c 128
 237.667 553 266.333 561 297 561 c 0
 351 561 390.167 545.5 414.5 514.5 c 128
 438.833 483.5 451 430.667 451 356 c 2
EndSplineSet
Validated: 1
EndChar

StartChar: o
Encoding: 111 111 78
Width: 512
VWidth: 1024
Flags: HW
LayerCount: 2
Fore
SplineSet
256 561 m 128
 392.667 561 461 468.833 461 284.5 c 128
 461 100.167 392.667 8 256 8 c 128
 119.333 8 51 100.167 51 284.5 c 128
 51 468.833 119.333 561 256 561 c 128
256 79 m 128
 297.333 79 327.833 94.5 347.5 125.5 c 128
 367.167 156.5 377 209.5 377 284.5 c 128
 377 359.5 367.167 412.5 347.5 443.5 c 128
 327.833 474.5 297.333 490 256 490 c 128
 214.667 490 184.167 474.5 164.5 443.5 c 128
 144.833 412.5 135 359.5 135 284.5 c 128
 135 209.5 144.833 156.5 164.5 125.5 c 128
 184.167 94.5 214.667 79 256 79 c 128
EndSplineSet
Validated: 1
EndChar

StartChar: p
Encoding: 112 112 79
Width: 512
VWidth: 1024
Flags: HW
LayerCount: 2
Fore
SplineSet
144 95 m 1
 142 95 l 1
 142 -207 l 1
 61 -207 l 1
 61 551 l 1
 137 551 l 1
 139 474 l 1
 141 474 l 1
 178.333 532 225.333 561 282 561 c 0
 401.333 561 461 469 461 285 c 0
 461 192.333 444.5 123 411.5 77 c 128
 378.5 31 335.333 8 282 8 c 0
 219.333 8 173.333 37 144 95 c 1
380 285 m 0
 380 417.667 340.333 484 261 484 c 0
 226.333 484 197.833 467.167 175.5 433.5 c 128
 153.167 399.833 142 352 142 290 c 2
 142 280 l 2
 142 217.333 153.167 169.167 175.5 135.5 c 128
 197.833 101.833 226.333 85 261 85 c 0
 297 85 325.833 101.5 347.5 134.5 c 128
 369.167 167.5 380 217.667 380 285 c 0
EndSplineSet
Validated: 1
EndChar

StartChar: q
Encoding: 113 113 80
Width: 512
VWidth: 1024
Flags: HW
LayerCount: 2
Fore
SplineSet
368 95 m 1
 338.667 37 292.667 8 230 8 c 0
 176.667 8 133.5 31 100.5 77 c 128
 67.5 123 51 192.333 51 285 c 0
 51 469 110.667 561 230 561 c 0
 286.667 561 333.667 532 371 474 c 1
 373 474 l 1
 375 551 l 1
 451 551 l 1
 451 -207 l 1
 370 -207 l 1
 370 95 l 1
 368 95 l 1
132 285 m 0
 132 217.667 142.833 167.5 164.5 134.5 c 128
 186.167 101.5 215 85 251 85 c 0
 285.667 85 314.167 101.833 336.5 135.5 c 128
 358.833 169.167 370 217.333 370 280 c 2
 370 290 l 2
 370 352 358.833 399.833 336.5 433.5 c 128
 314.167 467.167 285.667 484 251 484 c 0
 171.667 484 132 417.667 132 285 c 0
EndSplineSet
Validated: 1
EndChar

StartChar: r
Encoding: 114 114 81
Width: 512
VWidth: 1024
Flags: HW
LayerCount: 2
Fore
SplineSet
190 551 m 1
 190 449 l 1
 193 449 l 1
 235 523.667 293.667 561 369 561 c 0
 394.333 561 418 557.667 440 551 c 1
 440 479 l 1
 416 486.333 392.333 490 369 490 c 0
 319 490 277.333 469.333 244 428 c 128
 210.667 386.667 194 332 194 264 c 2
 194 18 l 1
 113 18 l 1
 113 551 l 1
 190 551 l 1
EndSplineSet
Validated: 1
EndChar

StartChar: s
Encoding: 115 115 82
Width: 512
VWidth: 1024
Flags: HW
LayerCount: 2
Fore
SplineSet
261 493 m 0
 195.667 493 163 468 163 418 c 0
 163 394.667 170.167 376 184.5 362 c 128
 198.833 348 224.333 336 261 326 c 0
 333.667 305.333 381.667 283.666 405 261 c 128
 428.333 238.333 440 203.5 440 156.5 c 128
 440 109.5 424 73 392 47 c 128
 360 21 314.667 8 256 8 c 128
 197.333 8 141 21.6667 87 49 c 1
 87 131 l 1
 140.333 95 193.333 77 246 77 c 0
 321.333 77 359 103.667 359 157 c 0
 359 182.333 351.667 201.833 337 215.5 c 128
 322.333 229.167 293.666 242 251 254 c 0
 188.333 272 144.5 293.167 119.5 317.5 c 128
 94.5 341.833 82 375.333 82 418 c 0
 82 462.667 96.8333 497.667 126.5 523 c 128
 156.167 548.333 199.333 561 256 561 c 0
 313.333 561 368 549 420 525 c 1
 420 449 l 1
 366 478.333 313 493 261 493 c 0
EndSplineSet
Validated: 1
EndChar

StartChar: t
Encoding: 116 116 83
Width: 512
VWidth: 1024
Flags: HW
LayerCount: 2
Fore
SplineSet
250 530 m 1
 435 530 l 1
 435 460 l 1
 250 460 l 1
 250 172 l 2
 250 134 255.667 108.667 267 96 c 128
 278.333 83.3333 300.333 77 333 77 c 0
 367 77 397.667 83 425 95 c 1
 425 24 l 1
 392.333 13.3333 358.333 8 323 8 c 0
 265.667 8 225.667 19.1667 203 41.5 c 128
 180.333 63.8333 169 104 169 162 c 2
 169 460 l 1
 67 460 l 1
 67 530 l 1
 169 530 l 1
 169 725 l 1
 250 725 l 1
 250 530 l 1
EndSplineSet
Validated: 1
EndChar

StartChar: u
Encoding: 117 117 84
Width: 512
VWidth: 1024
Flags: HW
LayerCount: 2
Fore
SplineSet
67 203 m 2
 67 551 l 1
 145 551 l 1
 145 221 l 2
 145 164.333 151.333 126.833 164 108.5 c 128
 176.667 90.1667 200.667 81 236 81 c 0
 269.333 81 297.333 99.8334 320 137.5 c 128
 342.667 175.167 354 227 354 293 c 2
 354 551 l 1
 435 551 l 1
 435 18 l 1
 359 18 l 1
 357 95 l 1
 355 95 l 1
 342.333 67.6667 323.333 46.3333 298 31 c 128
 272.667 15.6667 245 8 215 8 c 0
 162.333 8 124.5 22.6667 101.5 52 c 128
 78.5 81.3334 67 131.667 67 203 c 2
EndSplineSet
Validated: 1
EndChar

StartChar: v
Encoding: 118 118 85
Width: 512
VWidth: 1024
Flags: HW
LayerCount: 2
Fore
SplineSet
257 80 m 1
 259 80 l 1
 377 551 l 1
 461 551 l 1
 312 18 l 1
 200 18 l 1
 51 551 l 1
 139 551 l 1
 257 80 l 1
EndSplineSet
Validated: 1
EndChar

StartChar: w
Encoding: 119 119 86
Width: 512
VWidth: 1024
Flags: HW
LayerCount: 2
Fore
SplineSet
359 100 m 1
 361 100 l 1
 412 551 l 1
 492 551 l 1
 410 18 l 1
 308 18 l 1
 253 469 l 1
 251 469 l 1
 201 18 l 1
 102 18 l 1
 20 551 l 1
 104 551 l 1
 155 100 l 1
 157 100 l 1
 207 551 l 1
 309 551 l 1
 359 100 l 1
EndSplineSet
Validated: 1
EndChar

StartChar: x
Encoding: 120 120 87
Width: 512
VWidth: 1024
Flags: HW
LayerCount: 2
Fore
SplineSet
257 331 m 1
 259 331 l 1
 366 551 l 1
 456 551 l 1
 307 285 l 1
 456 18 l 1
 359 18 l 1
 255 239 l 1
 253 239 l 1
 148 18 l 1
 56 18 l 1
 205 285 l 1
 56 551 l 1
 151 551 l 1
 257 331 l 1
EndSplineSet
Validated: 1
EndChar

StartChar: y
Encoding: 121 121 88
Width: 512
VWidth: 1024
Flags: HW
LayerCount: 2
Fore
SplineSet
265 141 m 1
 267 141 l 1
 387 551 l 1
 476 551 l 1
 230 -207 l 1
 145 -207 l 1
 225 29 l 1
 46 551 l 1
 136 551 l 1
 265 141 l 1
EndSplineSet
Validated: 1
EndChar

StartChar: z
Encoding: 122 122 89
Width: 512
VWidth: 1024
Flags: HW
LayerCount: 2
Fore
SplineSet
82 551 m 1
 430 551 l 1
 430 480 l 1
 176 91 l 1
 176 89 l 1
 430 89 l 1
 430 18 l 1
 82 18 l 1
 82 89 l 1
 336 478 l 1
 336 480 l 1
 82 480 l 1
 82 551 l 1
EndSplineSet
Validated: 1
EndChar

StartChar: braceleft
Encoding: 123 123 90
Width: 512
VWidth: 1024
Flags: HW
LayerCount: 2
Fore
SplineSet
200 342 m 1
 204 340 l 1
 259.333 314 287 263 287 187 c 2
 287 49 l 2
 287 -0.333332 292.667 -31.3333 304 -44 c 128
 315.333 -56.6667 342 -63 384 -63 c 2
 425 -63 l 1
 425 -125 l 1
 358 -125 l 2
 308.667 -125 272.167 -112.833 248.5 -88.5 c 128
 224.833 -64.1667 213 -25 213 29 c 2
 213 182 l 2
 213 227.333 205.667 260 191 280 c 128
 176.333 300 153.667 310 123 310 c 2
 77 310 l 1
 77 372 l 1
 123 372 l 2
 153.667 372 176.333 382 191 402 c 128
 205.667 422 213 454.667 213 500 c 2
 213 653 l 2
 213 707 224.833 746.167 248.5 770.5 c 128
 272.167 794.833 308.667 807 358 807 c 2
 425 807 l 1
 425 745 l 1
 384 745 l 2
 342 745 315.333 738.667 304 726 c 128
 292.667 713.333 287 682.333 287 633 c 2
 287 495 l 2
 287 453 280.167 420.333 266.5 397 c 128
 252.833 373.667 230.667 355.333 200 342 c 1
EndSplineSet
Validated: 1
EndChar

StartChar: bar
Encoding: 124 124 91
Width: 512
VWidth: 1024
Flags: HW
LayerCount: 2
Fore
SplineSet
217 -207 m 1
 217 848 l 1
 295 848 l 1
 295 -207 l 1
 217 -207 l 1
EndSplineSet
Validated: 1
EndChar

StartChar: braceright
Encoding: 125 125 92
Width: 512
VWidth: 1024
Flags: HW
LayerCount: 2
Fore
SplineSet
312 342 m 1
 281.333 355.334 259.166 373.667 245.5 397 c 128
 231.833 420.333 225 453 225 495 c 2
 225 633 l 2
 225 682.333 219.333 713.333 208 726 c 128
 196.667 738.667 170 745 128 745 c 2
 87 745 l 1
 87 807 l 1
 154 807 l 2
 203.333 807 239.833 794.833 263.5 770.5 c 128
 287.167 746.167 299 707 299 653 c 2
 299 500 l 2
 299 454.667 306.333 422 321 402 c 128
 335.667 382 358.333 372 389 372 c 2
 435 372 l 1
 435 310 l 1
 389 310 l 2
 358.333 310 335.666 300 321 280 c 128
 306.333 260 299 227.333 299 182 c 2
 299 29 l 2
 299 -25 287.167 -64.1667 263.5 -88.5 c 128
 239.833 -112.833 203.333 -125 154 -125 c 2
 87 -125 l 1
 87 -63 l 1
 128 -63 l 2
 170 -63 196.667 -56.6667 208 -44 c 128
 219.333 -31.3333 225 -0.333332 225 49 c 2
 225 187 l 2
 225 263 252.667 314 308 340 c 1
 312 342 l 1
EndSplineSet
Validated: 1
EndChar

StartChar: asciitilde
Encoding: 126 126 93
Width: 512
VWidth: 1024
Flags: HW
LayerCount: 2
Fore
SplineSet
51 635 m 1
 51 712 l 1
 79.6667 734 112 745 148 745 c 0
 190 745 232.667 728.667 276 696 c 1
 309.334 672 336.667 660 358 660 c 0
 375.333 660 391.5 663.5 406.5 670.5 c 128
 421.5 677.5 439.667 691 461 711 c 1
 461 634 l 1
 432.333 611.333 400 600 364 600 c 0
 322 600 279.333 616.333 236 649 c 0
 203.333 673 176 685 154 685 c 0
 136.667 685 120.5 681.667 105.5 675 c 128
 90.5 668.333 72.3333 655 51 635 c 1
EndSplineSet
Validated: 1
EndChar

StartChar: cent
Encoding: 162 162 95
Width: 512
VWidth: 1024
Flags: HW
LayerCount: 2
Fore
SplineSet
456 309 m 5
 440.667 235 403 185.333 343 160 c 4
 327.667 153.333 310.667 149 292 147 c 5
 292 0 l 5
 230 0 l 5
 230 147 l 5
 158 155.667 106 194.333 74 263 c 4
 56.667 300.333 48 341 48 385 c 4
 48 473.667 74 541 126 587 c 4
 154 612.333 188.667 627.667 230 633 c 5
 230 762 l 5
 292 762 l 5
 292 633 l 5
 346.667 627.667 390.333 601.667 423 555 c 4
 441 530.333 452 503 456 473 c 5
 386 460 l 5
 379.333 499.333 362.666 530.333 336 553 c 4
 322.667 565 308 571.667 292 573 c 5
 292 210 l 5
 329.333 216.667 357 241 375 283 c 4
 380.333 294.334 384 306.667 386 320 c 5
 456 309 l 5
230 210 m 5
 230 571 l 5
 163.333 552.333 130 489.667 130 383 c 4
 130 310.333 150 259 190 229 c 4
 201.334 219.666 214.667 213.333 230 210 c 5
EndSplineSet
Validated: 1
EndChar

StartChar: copyright
Encoding: 169 169 96
Width: 512
VWidth: 1024
Flags: HW
LayerCount: 2
Fore
SplineSet
510 297 m 4
 510 225.667 466.333 188.667 379 186 c 5
 504 0 l 5
 434 0 l 5
 315 186 l 5
 242 186 l 5
 242 0 l 5
 181 0 l 5
 181 381.932 l 5
 122.494 388.112 76.4944 414.302 43 460.5 c 4
 16.333 497.833 3 541.167 3 590.5 c 4
 3 667.167 30 724.5 84 762.5 c 4
 118 785.833 158.333 797.5 205 797.5 c 4
 271 797.5 320.334 775.5 353 731.5 c 4
 367 711.5 376.333 688.5 381 662.5 c 5
 312 662.5 l 5
 304.667 703.833 280 729.5 238 739.5 c 5
 209 742.5 l 5
 135.667 742.5 92 706.833 78 635.5 c 4
 75.333 621.5 74 605.833 74 588.5 c 4
 74 521.167 97.333 475.167 144 450.5 c 4
 163.334 441.167 185.667 436.5 211 436.5 c 4
 255.667 436.5 286.333 454.167 303 489.5 c 4
 307.667 498.833 310.667 509.5 312 521.5 c 5
 381 521.5 l 5
 375.114 469.183 348.379 430.016 300.795 404 c 5
 362 404 l 6
 460.667 404 510 368.333 510 297 c 4
448 299 m 4
 448 335.667 422 355.333 370 358 c 5
 350 358 l 5
 242 358 l 5
 242 236 l 5
 351 236 l 6
 401 236 431.333 247 442 269 c 4
 446 277 448 287 448 299 c 4
EndSplineSet
EndChar

StartChar: onehalf
Encoding: 189 189 97
Width: 512
VWidth: 1024
Flags: HW
LayerCount: 2
Fore
SplineSet
247 262 m 1
 76 0 l 1
 2 0 l 1
 173 262 l 1
 247 262 l 1
512 0 m 1
 187 0 l 1
 187 48 l 1
 366 178 l 2
 414.667 213.333 441.667 248.667 447 284 c 0
 448.333 290 449 296 449 302 c 0
 449 338 429.667 362.667 391 376 c 1
 360 382 l 1
 360 382 360 382 350 382 c 0
 316.667 382 288.667 369.333 266 344 c 1
 252 327.333 245 309.333 245 290 c 1
 187 304 l 1
 201 362.667 236 401 292 419 c 0
 310 425 330 428 352 428 c 0
 404 428 445.667 412.333 477 381 c 0
 499.667 359 511 332.667 511 302 c 0
 511 243.333 479.333 193 416 151 c 1
 264 48 l 1
 512 48 l 1
 512 0 l 1
512 702 m 1
 341 440 l 1
 267 440 l 1
 438 702 l 1
 512 702 l 1
219 378 m 1
 2 379 l 1
 2 426 l 1
 134 426 l 1
 134 736 l 1
 100 698.667 59.333 669 12 647 c 1
 12 699 l 1
 66 725.668 110.667 759.335 146 800 c 1
 197 800 l 1
 197 426 l 1
 219 425 l 1
 219 378 l 1
EndSplineSet
Validated: 1
EndChar

StartChar: notequal
Encoding: 8800 8800 98
Width: 512
VWidth: 1024
Flags: HW
LayerCount: 2
Fore
SplineSet
512 158.5 m 1
 205.5 159 l 1
 80.5 0 l 1
 28.5 42 l 1
 120.5 159 l 1
 0 158.5 l 1
 0 226.5 l 1
 164.5 227 l 1
 266.5 358 l 1
 0 357.5 l 1
 0 424.5 l 1
 311.5 425 l 1
 437.5 584 l 1
 489.5 543 l 1
 396.5 425 l 1
 512 424.5 l 1
 512 357.5 l 1
 351.5 358 l 1
 249.5 227 l 1
 512 226.5 l 1
 512 158.5 l 1
EndSplineSet
Validated: 1
EndChar

StartChar: block
Encoding: 9608 9608 99
Width: 512
VWidth: 1024
Flags: HW
LayerCount: 2
Fore
SplineSet
31.2402 779.24 m 2
 31.2402 789.08 36.1592 794.024 46 794 c 2
 478.381 792.92 l 6
 488.222 792.92 493.142 788 493.142 778.16 c 6
 493.142 24.5801 l 6
 493.142 14.1934 488.222 9 478.381 9 c 6
 46 10.0801 l 2
 36.1592 10.1045 31.2402 15.2734 31.2402 25.6602 c 2
 31.2402 779.24 l 2
EndSplineSet
Validated: 1
EndChar

StartChar: filledbox
Encoding: 9632 9632 100
Width: 512
VWidth: 1024
Flags: HW
LayerCount: 2
Fore
SplineSet
60 500 m 5
 444 500 l 5
 444 110.5 l 5
 60 110.5 l 5
 60 500 l 5
EndSplineSet
EndChar

StartChar: H22073
Encoding: 9633 9633 101
Width: 512
VWidth: 1024
Flags: HW
LayerCount: 2
Fore
SplineSet
124 439.5 m 5
 124 179.5 l 5
 384 179.5 l 5
 384 439.5 l 5
 124 439.5 l 5
62 500 m 5
 446 500 l 5
 446 110.5 l 5
 62 110.5 l 5
 62 500 l 5
EndSplineSet
EndChar

